<svg version="1" xmlns="http://www.w3.org/2000/svg" width="333.333" height="333.333" viewBox="0 0 250.000000 250.000000"><path d="M117.5 27.6c-2.2 1.4-6.7 3.9-10 5.5l-5.9 2.9-5.3-3c-7.6-4.3-9.6-4-5 .8 3.5 3.5 3.6 4 2.1 5.3-1.4 1.2-2 .9-5-2.4-4.4-4.7-5.6-4.9-1.5-.2 3.7 4.3 4.2 7.2.6 3.2-1.4-1.5-2.9-2.7-3.2-2.7-.4 0 .4 1.1 1.7 2.5l2.3 2.4-4.1 5.4c-8.6 11-8.7 11.5-9 43.9-.2 17.3.1 30.9.7 34.4 1.3 7 5 15.2 9.2 20.5l3.1 3.9-3.7 4.8-3.7 4.7 4.1-4.4c4.6-4.9 6.7-5.1 2.6-.3-3.6 4.3-3.1 5 .5.8l3.1-3.5 4.7 2.4c2.6 1.3 5.9 2.7 7.5 3 4.4 1.1 4 2.1-1.6 3.5-5.3 1.3-17.1 6.2-21.9 9l-2.6 1.6 5.4 8.4c2.9 4.7 5.5 8.9 5.7 9.4.2.5 2.1-.3 4.4-1.8 18.3-12.1 47-11.9 64.5.5 3 2.2 3.1 2.2 4.5.3 2.2-3 9.3-16 9.3-17.1 0-1.2-13.7-7.5-22.8-10.5-5.2-1.7-6.1-2.3-4.2-2.6 1.4-.2 5.3-1.7 8.6-3.2l6.2-2.8 5.3 5.2c3.9 3.7 4.3 3.9 1.4.9-2.1-2.4-3.5-4.6-3.1-5 .4-.5 2.1.7 3.7 2.5s2.9 2.9 2.9 2.6c0-.4-1.6-2.4-3.6-4.6l-3.5-3.9 3.1-3.2c4.1-4.1 7.5-10.8 8.9-17.6 1.8-8.7 1.4-61.7-.6-68.4-1.9-6.5-4.4-11.3-7.7-15.2-1.4-1.7-2.6-3.5-2.6-4.1 0-.5 1.6-2.5 3.5-4.4 1.9-1.8 3.3-3.6 3-3.8-.3-.3-1.4.5-2.5 1.8-3.1 3.6-3.4 1.7-.4-2.1 1.8-2.3 1-1.8-2.4 1.5-4.3 4.1-5.5 4.8-7.2 4-2-.9-2-1 1.5-5.1 1.9-2.3 3.5-4.4 3.5-4.7 0-1-5.1 1.4-8.6 4-3 2.3-3.8 2.5-6 1.5-1.4-.6-3.2-1.1-4-1.1-.8 0-4.4-1.8-8-4-7.9-4.8-12.1-5.1-17.9-1.4zm45.2 11.9c-2.3 2.2-3.3 1.8-1.2-.5 1-1.1 2-1.8 2.3-1.6.2.3-.3 1.2-1.1 2.1zM162 152c0 .5-.2 1-.4 1-.3 0-.8-.5-1.1-1-.3-.6-.1-1 .4-1 .6 0 1.1.4 1.1 1z"/><path d="M81.5 34c1 1.1 2 2 2.3 2 .3 0-.3-.9-1.3-2s-2-2-2.3-2c-.3 0 .3.9 1.3 2zM60 203.8v8.9h4.1c5 0 7.5-2.9 6-6.9-.5-1.3-.7-3.7-.4-5.3.7-3.5-1.6-5.5-6.4-5.5H60v8.8zm7-3.6c0 1.1-.7 1.8-2 1.8s-2-.7-2-1.9c0-1.4.6-1.9 2-1.8 1.2.1 2 .8 2 1.9zm.4 6.4c.8 2 .8 1.9-2.1 2.8-2 .6-2.3.4-2.3-1.8 0-1.9.5-2.6 1.9-2.6 1 0 2.2.7 2.5 1.6zM73.1 202.1c.2 8.1 1.6 10.9 5.5 10.9 3.3 0 4.4-2.8 4.4-11 0-5.3-.3-7.1-1.2-6.8-.9.3-1.3 2.6-1.3 6.6-.1 5.9-1.6 9.5-3.2 7.8-.5-.4-1-3.7-1.3-7.4-.3-4.2-1-6.7-1.8-7-1-.3-1.3 1.2-1.1 6.9zM86 204c0 6.7.3 8.9 1.3 8.7.6-.1 1.4-1.8 1.7-3.7.4-2.7 1-3.6 2.8-3.8 3.1-.5 2.9-3.2-.3-3.2-1.8 0-2.5-.5-2.5-2s.6-1.9 2.7-1.7c1.9.1 2.9-.3 3.1-1.6.3-1.4-.4-1.7-4.2-1.7H86v9zM97.7 195.7c-.2.5-.4 4.4-.3 8.7.1 5.4.5 8.1 1.4 8.3.8.3 1.2-.8 1.2-3.7 0-3.3.3-4.1 1.8-3.9 3.2.3 4.1-.1 3.6-1.6-.4-.8-1.7-1.5-3-1.5-1.7 0-2.4-.6-2.4-1.9 0-1.1.7-1.8 1.8-1.8 3.5 0 4.2-.3 4.2-1.8 0-1.1-1.1-1.5-3.9-1.5-2.2 0-4.2.3-4.4.7zM110 199.2c-.6 2.4-1.5 5.6-2 7.2-1.3 3.7-1.3 6.6-.1 6.6.5 0 1.3-.9 1.6-2 .8-2.6 5.1-2.7 5.9-.2.4 1 1.3 1.9 2.1 1.9s1.5-.1 1.5-.2-.4-1.5-.9-3.1-1.7-5.5-2.6-8.7c-2-6.8-4-7.4-5.5-1.5zm3.3 6c-.8 1.5-2.1.8-1.8-1 .2-.9.4-2.2.5-2.7.1-.6.5-.1.9 1 .5 1.1.7 2.3.4 2.7zM121.5 195.6c-.8.3-1.1 9.6-.6 16.1.1 1.4 8.1 1.6 8.1.2v-1.7c0-.4-.9-.8-2-.8-1.1-.1-2.4-.2-2.9-.3-.5 0-.8-3.1-.7-6.7.2-6.5 0-7.4-1.9-6.8zM133.4 197.1c-2.8 3.1-2.6 11.1.3 14 4.6 4.7 10.6-.9 9.6-9-.9-6.7-6-9.3-9.9-5zm5.4 1.7c2.7 1.7 2.4 9.5-.4 10.6-3.4 1.3-5.7-5.1-3.4-9.5 1.2-2.1 1.8-2.3 3.8-1.1zM152.4 197.1c-4.1 4.5-1.5 15.9 3.6 15.9 2.4 0 5.4-3.6 4.6-5.6-.6-1.5-.9-1.5-2.7.5-2.8 2.9-4.9 1.2-4.9-3.9 0-4.8 2.5-7.3 4.5-4.6 1.3 1.7 3.5 1.5 3.5-.4 0-1.5-3.1-4-4.9-4-1 0-2.6.9-3.7 2.1zM163.7 195.7c-.2.5-.3 4.4-.2 8.7 0 5.3.4 8.1 1.3 8.4.6.2 1.2-.2 1.3-1 .4-4.8.5-14.5.1-15.6-.5-1.3-1.9-1.6-2.5-.5zM168 195.8c0 1.4 1.8 3.4 2.6 3 .5-.1 1 3 1.2 6.9.2 5.1.7 7.3 1.6 7.3.8 0 1.3-1.7 1.3-5.3.1-9.6.2-10 1.8-9.3 1 .3 1.5-.1 1.5-1.4 0-1.6-.7-1.9-5-1.8-2.7 0-5 .3-5 .6zM179 195.5c0 .3.9 2.4 2.1 4.7 1.2 2.3 2.2 6.1 2.3 8.5 0 2.7.6 4.3 1.4 4.3.6 0 1.2-.6 1.3-1.3.2-5.5 1.1-9.4 2.8-12.2 1.8-3.1 1.8-4.5 0-4.5-.5 0-1.6 1.5-2.5 3.2l-1.7 3.3-1.4-3.3c-.7-1.7-2-3.2-2.8-3.2-.8 0-1.5.2-1.5.5zM60.8 215.6c-.5.4-.8 2.8-.7 5.3 0 3.5.2 4.1.9 2.6.7-1.6.9-1.7.9-.3.1 1 .9 1.6 2 1.5 1.7-.1 2-.9 1.9-5 0-3.2-.4-4.7-1.1-4.4-.7.3-1.1 1-.9 1.6.1.6-.2 1.1-.7 1.1-.5 0-1.1-.7-1.3-1.6-.2-.9-.6-1.2-1-.8zM67.5 215.9c-.3.2-.5 2.4-.5 4.8 0 3.9.2 4.3 2.5 4.3 3.1 0 3.3-1.5.3-2.5-2-.6-2-.8-.5-1.2 1.8-.5 2.4-2.3.7-2.3-.5 0-1-.5-1-1 0-.6 1.1-1 2.5-1 2.3 0 2.5.4 2.5 4.1 0 2.2.4 3.8.8 3.5.5-.3.8-1.9.7-3.6-.1-1.7.2-3.3.7-3.6 2-1.3.5-2.1-3.7-2-2.5 0-4.8.2-5 .5zM78.6 215.8c-.3.3-.6 2.6-.6 5 0 2.5.3 4.2.8 3.8.4-.4.8-1.2.8-1.7.3-2.3.6-2.3 1.9.1 1.3 2.4 1.4 2.3 1.2-2.4-.2-3.7-.6-5-1.9-5.2-.9-.1-1.9.1-2.2.4zm2.9 2.2c.3.5.2 1-.4 1-.5 0-1.3-.5-1.6-1-.3-.6-.2-1 .4-1 .5 0 1.3.4 1.6 1zM85.2 216.2c-1.4 1.4-1.5 5.7-.2 7.8.7 1.2 1.3 1.2 2.7.4 2.2-1.3 2.9-6 1.2-8-1.4-1.7-2.1-1.8-3.7-.2zm3.2 2.3c.6 1.7-.2 4.5-1.4 4.5s-2-2.8-1.4-4.5c.4-.8 1-1.5 1.4-1.5.4 0 1 .7 1.4 1.5zM91 220.3c0 3.6.3 4.7.9 3.7.6-.8.7-1.8.5-2.2-.3-.4.1-.8.9-.8 3.5 0 2.8-5.1-.8-5.6-1.2-.2-1.5.9-1.5 4.9zm2.7-1.1c-.3.8-.6.5-.6-.6-.1-1.1.2-1.7.5-1.3.3.3.4 1.2.1 1.9zM97 217.5c-1.2 3.1.3 7.5 2.5 7.5 2.6 0 3.8-4.8 2-7.6-2-3.1-3.3-3-4.5.1zm3.8 3.1c-.5 2.8-2.8 2.9-2.8.1 0-1.3.3-2.7.7-3.1 1-1 2.5 1 2.1 3zM103.9 215.5c-.6.8-.6 5 0 8.7.2 1.2 4.1.9 4.1-.2 0-.6-.6-1-1.4-1-1 0-1.6-1.4-1.8-4.3-.2-2.3-.6-3.8-.9-3.2zM108.9 216.2c-.3 3.9-.1 8 .5 8.5.3.4.6-1.7.6-4.5 0-2.9-.2-5.2-.5-5.2s-.5.6-.6 1.2zM111 216.5c0 .8.5 1.5 1 1.5.6 0 .8 1.1.6 2.3-.2 1.3 0 3 .5 3.8.6.9.9 0 .9-2.9 0-2.5.5-4.2 1.2-4.2 1.8 0 0-1.3-2.2-1.7-1.2-.2-2 .3-2 1.2zM117.6 216c-1.6 4.8-2.3 9-1.5 9 .5 0 .9-.5.9-1 0-1.4 2.7-1.2 3.4.2.3.7.3-.5 0-2.7s-1-4.7-1.4-5.5c-.8-1.3-.9-1.3-1.4 0zM122 220.1c0 3.7.3 4.9.9 3.9.6-.8.7-1.8.4-2.4-.3-.5-.1-.6.5-.2.7.4 1.2 1.4 1.2 2.2 0 .8.5 1.4 1 1.4.6 0 .9-2.3.9-5.3-.1-4.4-.2-4.8-.9-2.2-.4 1.6-.8 2.3-.9 1.4 0-.9-.8-2.2-1.6-2.9-1.3-1.1-1.5-.5-1.5 4.1zM130.9 215.2c-.5 1.9-.3 9.8.3 9.8.4 0 .8-.6.8-1.3 0-.8.4-.7 1 .3.9 1.3 1 1.3 1 0 0-1.2.2-1.2.9-.2 1.1 1.8 1.9-.1 1.6-4.3-.1-3.7-1.8-4.5-2.7-1.3-.6 2.3-.6 2.3-.7.1-.1-1.8-1.9-4.3-2.2-3.1zM138.1 215.5c-1.2 4.7 0 9.5 2.3 9.5 2.2 0 3.5-8.3 1.5-9.5-.5-.4-.9 1.2-.9 3.4 0 5.4-1.8 5.3-2.3-.2-.2-2.3-.5-3.8-.6-3.2zM144.1 220.2c.1 4.2.3 4.8.9 2.8l.8-2.5.7 2.2c1.1 3.4 2.5 1.7 2.5-2.8 0-2.6-.4-3.8-1.1-3.4-.6.4-.8 1.4-.5 2.2.3.8.1 1.1-.4.8-.6-.3-1-1.2-1-2s-.4-1.7-1-2c-.6-.4-1 1.4-.9 4.7zM150 219.8c0 3.1.4 5.1 1 4.7.5-.3.7-1.2.3-2-.3-.8 0-1.5.6-1.5s1.1.6 1.1 1.4c0 2.3 2 3 3.7 1.3 1-1 1.1-1.7.4-2.1-.6-.4-1.1-.2-1.1.3 0 .6-.4 1.1-1 1.1-1.3 0-1.3-4.7-.1-5.4.5-.4 1.1-.1 1.3.6.3.8.6.9 1.1.1.4-.6.1-1.6-.7-2.2-1.1-.9-1.8-.8-3 .4-.9.9-1.4 2.1-1.1 2.6.4.5.1.9-.5.9-.7 0-1-.6-.7-1.3.3-.8.1-2-.4-2.8-.6-.9-.9.4-.9 3.9zM159.3 220c0 3 .2 4.3.4 2.7.2-1.5.2-3.9 0-5.5-.2-1.5-.4-.2-.4 2.8zM161.5 216c-.8 1.4-.3 9 .7 9 .4 0 .8-.9.8-2s.7-2 1.5-2c2 0 2-4.6-.1-5.4-2.1-.8-2.2-.8-2.9.4zm3.5 1.9c0 .6-.4 1.3-1 1.6-.5.3-1-.1-1-.9 0-.9.5-1.6 1-1.6.6 0 1 .4 1 .9zM167.5 218.2c-.3 1.8-.9 4.2-1.2 5.3-.5 1.8-.4 1.8 1.1.6 1.5-1.3 1.9-1.3 2.6-.1 1.5 2.5 2 .5.9-3.6-1.5-5.4-2.6-6.2-3.4-2.2zM178 219.9c0 2.9.4 5 .9 4.7.9-.6.6-8.4-.4-9.4-.3-.3-.5 1.8-.5 4.7zM181.1 215.9c-.7.5-.9 1.1-.4 1.4.6.4 1 2 1.1 3.8.1 4.7 1.2 4.8 1.2.1 0-3 .4-4.2 1.4-4.2 1.9 0 2.5 1 2.8 4.9.3 3.7 1.8 4.2 1.8.5 0-1.4.5-3.4 1-4.4.7-1.3.7-2.1 0-2.5-.5-.3-1 .1-1 .9 0 1.9-1.7 2.1-2.2.4-.5-1.4-3.9-2-5.7-.9zM173 216.7c-.3 1.4-.3 3.2-.1 6.3.1 2 4.1 3 4.1 1 0-.6-.6-1-1.4-1-1 0-1.6-1.3-1.9-3.8-.2-2-.5-3.1-.7-2.5z"/></svg>